<svg width="31" height="32" viewBox="0 0 31 32" fill="none" xmlns="http://www.w3.org/2000/svg">
<path fill-rule="evenodd" clip-rule="evenodd" d="M14.6085 0C22.6635 0 29.2155 6.552 29.2155 14.607C29.2155 18.4073 27.7571 21.8734 25.3705 24.4747L30.0666 29.1611C30.5061 29.6006 30.5076 30.3116 30.0681 30.751C29.8491 30.973 29.5596 31.0826 29.2716 31.0826C28.9851 31.0826 28.6971 30.9731 28.4766 30.7541L23.7238 26.0145C21.2236 28.0168 18.0535 29.2155 14.6085 29.2155C6.5535 29.2155 0 22.662 0 14.607C0 6.552 6.5535 0 14.6085 0ZM14.6085 2.25C7.794 2.25 2.25 7.7925 2.25 14.607C2.25 21.4215 7.794 26.9655 14.6085 26.9655C21.4215 26.9655 26.9655 21.4215 26.9655 14.607C26.9655 7.7925 21.4215 2.25 14.6085 2.25Z" fill="#BEBEBE"/>
</svg>
